<svg width="21" height="21" viewBox="0 0 21 21" fill="none" xmlns="http://www.w3.org/2000/svg">
<path d="M20.4004 10.4502C20.4004 10.5447 20.3656 10.6607 20.2664 10.8166C20.1651 10.9757 20.0209 11.1399 19.8422 11.3327C19.8172 11.3596 19.7914 11.3873 19.765 11.4156C19.6142 11.5771 19.4439 11.7596 19.3013 11.9456C19.1354 12.1619 18.9705 12.4276 18.9045 12.7395C18.8278 13.0393 18.8445 13.3485 18.8824 13.6192C18.9134 13.8412 18.965 14.0743 19.0113 14.2835C19.0221 14.3324 19.0326 14.3799 19.0425 14.4258C19.0983 14.6838 19.1377 14.8988 19.1432 15.0841C19.1487 15.267 19.1189 15.3739 19.0775 15.4412C19.0317 15.5155 18.9449 15.595 18.7809 15.6788C18.6147 15.7636 18.4094 15.8332 18.1608 15.9102C18.124 15.9216 18.086 15.9333 18.0471 15.9452C17.8389 16.0089 17.6054 16.0804 17.391 16.1668C17.135 16.27 16.8576 16.4124 16.635 16.635C16.4124 16.8576 16.27 17.135 16.1668 17.391C16.0804 17.6054 16.0089 17.8389 15.9452 18.0471C15.9333 18.086 15.9216 18.124 15.9102 18.1608C15.8332 18.4094 15.7636 18.6147 15.6788 18.7809C15.595 18.9449 15.5155 19.0317 15.4412 19.0775C15.3739 19.1189 15.267 19.1487 15.0841 19.1432C14.8988 19.1377 14.6838 19.0983 14.4258 19.0425C14.3799 19.0326 14.3324 19.0221 14.2835 19.0113C14.0743 18.965 13.8412 18.9134 13.6192 18.8824C13.344 18.8439 13.0289 18.8272 12.7243 18.9084C12.4202 18.9895 12.1587 19.1585 11.9422 19.3274C11.7695 19.4622 11.5978 19.6199 11.444 19.7612C11.407 19.7952 11.371 19.8283 11.3363 19.8598C11.1453 20.0335 10.9814 20.1728 10.8232 20.2701C10.6684 20.3652 10.55 20.4004 10.4502 20.4004C10.3557 20.4004 10.2397 20.3656 10.0838 20.2664C9.92465 20.1651 9.76045 20.0209 9.56772 19.8422C9.54078 19.8172 9.51312 19.7914 9.4848 19.765C9.32329 19.6142 9.14082 19.4439 8.95483 19.3013C8.73853 19.1354 8.4728 18.9705 8.16092 18.9045C7.86108 18.8278 7.55185 18.8445 7.28116 18.8824C7.0592 18.9134 6.82613 18.965 6.61692 19.0113C6.56803 19.0221 6.52044 19.0326 6.4746 19.0425C6.2166 19.0983 6.00155 19.1377 5.81627 19.1432C5.6334 19.1487 5.52647 19.1189 5.4592 19.0775C5.38489 19.0317 5.30536 18.9449 5.22162 18.7809C5.13677 18.6147 5.06721 18.4094 4.99018 18.1608C4.97877 18.124 4.96714 18.086 4.95523 18.0471C4.89149 17.8389 4.81999 17.6054 4.73359 17.391C4.63041 17.135 4.48803 16.8576 4.26539 16.635C4.04275 16.4124 3.76535 16.27 3.50935 16.1668C3.29499 16.0804 3.06148 16.0089 2.85331 15.9452C2.81442 15.9333 2.77641 15.9216 2.73958 15.9102C2.49099 15.8332 2.28572 15.7636 2.1195 15.6788C1.95546 15.595 1.86865 15.5155 1.82291 15.4412C1.78152 15.3739 1.75174 15.267 1.75716 15.0841C1.76265 14.8988 1.80207 14.6838 1.85785 14.4258C1.86776 14.3799 1.87829 14.3323 1.88911 14.2835C1.9354 14.0742 1.98696 13.8412 2.018 13.6192C2.0565 13.344 2.07318 13.0289 1.99197 12.7243C1.91086 12.4202 1.74192 12.1587 1.57299 11.9422C1.43823 11.7695 1.2805 11.5978 1.13919 11.444C1.10519 11.407 1.07213 11.371 1.04057 11.3363C0.866906 11.1453 0.727557 10.9814 0.630279 10.8232C0.535147 10.6684 0.5 10.55 0.5 10.4502C0.5 10.3557 0.534803 10.2397 0.634013 10.0838C0.735311 9.92465 0.879474 9.76045 1.05819 9.56772C1.08316 9.54079 1.10899 9.51312 1.13542 9.48481C1.28619 9.32329 1.45652 9.14082 1.59914 8.95483C1.76501 8.73852 1.92992 8.47278 1.99593 8.16089C2.07262 7.86106 2.05586 7.55185 2.018 7.28116C1.98696 7.0592 1.9354 6.82615 1.88911 6.61694C1.87829 6.56804 1.86776 6.52045 1.85785 6.4746C1.80207 6.2166 1.76265 6.00155 1.75716 5.81628C1.75174 5.6334 1.78152 5.52648 1.82291 5.4592C1.86667 5.3881 1.95367 5.30848 2.12364 5.2235C2.29481 5.13791 2.50572 5.06805 2.75866 4.99076C2.79183 4.98063 2.8259 4.97031 2.86066 4.95979C3.07527 4.89485 3.31631 4.82191 3.53478 4.73284C3.78528 4.63072 4.06114 4.48682 4.27365 4.25707C4.49156 4.03586 4.6317 3.76217 4.73359 3.50935C4.81999 3.29498 4.89149 3.06147 4.95523 2.8533C4.96713 2.81441 4.97877 2.77641 4.99018 2.73958C5.06721 2.49099 5.13677 2.28572 5.22162 2.1195C5.30536 1.95546 5.38489 1.86865 5.4592 1.82291C5.52647 1.78152 5.6334 1.75174 5.81627 1.75716C6.00155 1.76265 6.2166 1.80207 6.4746 1.85785C6.52045 1.86776 6.56804 1.87829 6.61694 1.88911C6.82615 1.9354 7.0592 1.98696 7.28116 2.018C7.55185 2.05586 7.86106 2.07262 8.16089 1.99593C8.47278 1.92992 8.73852 1.76501 8.95483 1.59914C9.14082 1.45652 9.32329 1.28619 9.4848 1.13542C9.51311 1.10899 9.54078 1.08316 9.56771 1.05819C9.76045 0.879474 9.92465 0.735311 10.0838 0.634013C10.2397 0.534803 10.3557 0.5 10.4502 0.5C10.5447 0.5 10.6607 0.534803 10.8166 0.634013C10.9757 0.735311 11.1399 0.879474 11.3327 1.05819C11.3596 1.08316 11.3873 1.10899 11.4156 1.13542C11.5771 1.28619 11.7596 1.45652 11.9456 1.59914C12.1619 1.76501 12.4276 1.92992 12.7395 1.99593C13.0393 2.07262 13.3485 2.05586 13.6192 2.018C13.8412 1.98696 14.0742 1.9354 14.2834 1.88911C14.3323 1.87829 14.3799 1.86776 14.4258 1.85785C14.6838 1.80207 14.8988 1.76265 15.0841 1.75716C15.267 1.75174 15.3739 1.78152 15.4412 1.82291C15.5155 1.86865 15.595 1.95546 15.6788 2.1195C15.7636 2.28572 15.8332 2.49099 15.9102 2.73958C15.9216 2.77641 15.9333 2.81442 15.9452 2.85331C16.0089 3.06148 16.0804 3.29499 16.1668 3.50935C16.27 3.76535 16.4124 4.04275 16.635 4.26539C16.8576 4.48803 17.135 4.63041 17.391 4.73359C17.6054 4.81999 17.8389 4.89149 18.0471 4.95523C18.086 4.96714 18.124 4.97877 18.1608 4.99018C18.4094 5.06721 18.6147 5.13677 18.7809 5.22162C18.9449 5.30536 19.0317 5.38489 19.0775 5.4592C19.1189 5.52648 19.1487 5.6334 19.1432 5.81628C19.1377 6.00155 19.0983 6.2166 19.0425 6.4746C19.0326 6.52044 19.0221 6.56803 19.0113 6.61692C18.965 6.82614 18.9134 7.0592 18.8824 7.28116C18.8445 7.55185 18.8278 7.86108 18.9045 8.16092C18.9705 8.4728 19.1354 8.73853 19.3013 8.95483C19.4439 9.14083 19.6142 9.3233 19.765 9.48482C19.7914 9.51313 19.8172 9.54079 19.8422 9.56772C20.0209 9.76045 20.1651 9.92465 20.2664 10.0838C20.3656 10.2397 20.4004 10.3557 20.4004 10.4502Z" stroke="white"/>
</svg>
