<svg width="37" height="39" viewBox="0 0 37 39" fill="none" xmlns="http://www.w3.org/2000/svg">
<path d="M18.5353 0H18.4573C11.8718 0 7.61311 0.614515 4.8687 2.29411H16.7245C17.0286 2.29411 17.3202 2.41497 17.5352 2.63008C17.7503 2.8452 17.8711 3.13694 17.8711 3.44116C17.8711 3.74538 17.7503 4.03716 17.5352 4.25227C17.3202 4.46739 17.0286 4.58824 16.7245 4.58824H2.42715C1.94269 5.29879 1.55399 6.07014 1.27114 6.88235H20.2244C20.5285 6.88235 20.8202 7.00321 21.0352 7.21832C21.2503 7.43344 21.3711 7.72519 21.3711 8.02941C21.3711 8.33363 21.2503 8.6254 21.0352 8.84051C20.8202 9.05563 20.5285 9.17646 20.2244 9.17646H0.654526C0.512466 9.89015 0.398515 10.6549 0.312655 11.4706H24.1506C24.4547 11.4706 24.7464 11.5914 24.9614 11.8066C25.1765 12.0217 25.2972 12.3134 25.2972 12.6176C25.2972 12.9219 25.1765 13.2136 24.9614 13.4287C24.7464 13.6438 24.4547 13.7647 24.1506 13.7647H0.127665C0.0865559 14.4935 0.056111 15.2582 0.0363371 16.0588H17.416C17.5666 16.0588 17.7157 16.0885 17.8548 16.1461C17.9939 16.2038 18.1203 16.2883 18.2268 16.3948C18.3333 16.5013 18.4178 16.6278 18.4754 16.7669C18.533 16.9061 18.5627 17.0553 18.5627 17.2059C18.5627 17.3565 18.533 17.5057 18.4754 17.6449C18.4178 17.784 18.3333 17.9105 18.2268 18.017C18.1203 18.1235 17.9939 18.208 17.8548 18.2656C17.7157 18.3233 17.5666 18.3529 17.416 18.3529H8.70978H0.00351247C-0.00117082 18.7293 -0.00117082 20.2707 0.00351247 20.6471H20.941C21.2451 20.6471 21.5368 20.7679 21.7518 20.983C21.9668 21.1981 22.0876 21.4899 22.0876 21.7941C22.0876 22.0983 21.9668 22.3901 21.7518 22.6052C21.5368 22.8203 21.2451 22.9412 20.941 22.9412H0.0355272C0.0558215 23.7418 0.0862663 24.5065 0.126855 25.2353H18.4799C18.6305 25.2353 18.7796 25.265 18.9187 25.3226C19.0578 25.3803 19.1842 25.4648 19.2907 25.5713C19.3972 25.6778 19.4816 25.8042 19.5393 25.9434C19.5969 26.0826 19.6265 26.2317 19.6265 26.3824C19.6265 26.533 19.5969 26.6821 19.5393 26.8213C19.4816 26.9605 19.3972 27.0869 19.2907 27.1935C19.1842 27.3 19.0578 27.3845 18.9187 27.4421C18.7796 27.4997 18.6305 27.5294 18.4799 27.5294H0.313417C0.400318 28.3462 0.514269 29.1109 0.655288 29.8235H22.424C22.7281 29.8235 23.0198 29.9444 23.2348 30.1595C23.4498 30.3746 23.5707 30.6664 23.5707 30.9706C23.5707 31.2748 23.4498 31.5666 23.2348 31.7817C23.0198 31.9968 22.7281 32.1176 22.424 32.1176H1.27114C1.55398 32.9299 1.94268 33.7012 2.42715 34.4118H17.1015C17.4056 34.4118 17.6972 34.5326 17.9123 34.7477C18.1273 34.9628 18.2481 35.2546 18.2481 35.5588C18.2481 35.8631 18.1273 36.1548 17.9123 36.3699C17.6972 36.585 17.4056 36.7059 17.1015 36.7059H4.8718C7.61621 38.3847 11.8749 39 18.4604 39H18.5385C35.3468 39 37 34.999 37 19.5023C37 4.00571 35.3437 0 18.5353 0Z" fill="#0A070C"/>
</svg>
