<svg width="36" height="37" viewBox="0 0 36 37" fill="none" xmlns="http://www.w3.org/2000/svg">
<path d="M31.6718 19.8025C31.7509 19.2059 31.7819 18.6039 31.7647 18.0022C31.7647 17.3724 31.6718 16.8327 31.6718 16.2019L35.5372 13.2293C35.6273 13.1656 35.7038 13.0845 35.7622 12.9908C35.8205 12.8971 35.8594 12.7927 35.8768 12.6837C35.8941 12.5747 35.8894 12.4633 35.863 12.3561C35.8366 12.249 35.789 12.1482 35.723 12.0597L32.0397 5.85056C31.9284 5.66912 31.7561 5.53322 31.5537 5.46719C31.3513 5.40115 31.1321 5.40928 30.9352 5.49013L26.3322 7.29044C25.375 6.55189 24.3222 5.94629 23.2025 5.49013L22.5569 0.719941C22.5002 0.51751 22.3803 0.338491 22.2147 0.208985C22.0491 0.0794789 21.8464 0.00625865 21.6363 0H14.2716C14.0614 0.00625865 13.8588 0.0794789 13.6932 0.208985C13.5276 0.338491 13.4077 0.51751 13.351 0.719941L12.6143 5.49013C11.5046 5.96693 10.454 6.57109 9.48372 7.29044L4.88074 5.49013C4.68484 5.4017 4.46297 5.38964 4.25864 5.45632C4.05431 5.523 3.88225 5.6636 3.77622 5.85056L0.0938372 12.0616C0.00840441 12.2536 -0.019515 12.4663 0.0134603 12.6739C0.0464356 12.8814 0.138891 13.075 0.279628 13.2311L4.23884 16.2038C4.23884 16.8336 4.14594 17.3733 4.14594 18.0041C4.14594 18.6348 4.23884 19.1736 4.23884 19.8044L0.372524 22.7771C0.282375 22.8407 0.205887 22.9218 0.14757 23.0155C0.0892538 23.1092 0.050289 23.2137 0.0329734 23.3227C0.0156577 23.4317 0.0203418 23.543 0.0467494 23.6502C0.0731571 23.7573 0.120754 23.8581 0.186733 23.9466L3.86911 30.1576C3.98044 30.339 4.15271 30.4749 4.35508 30.541C4.55745 30.607 4.77672 30.5989 4.97364 30.518L9.57661 28.7177C10.5338 29.4563 11.5866 30.0619 12.7063 30.518L13.4429 35.2882C13.4842 35.4989 13.6 35.6876 13.769 35.8198C13.9381 35.952 14.1492 36.0189 14.3635 36.0082H21.7283C21.9384 36.0019 22.1411 35.9287 22.3067 35.7992C22.4723 35.6697 22.5922 35.4907 22.6489 35.2882L23.3865 30.518C24.4959 30.0413 25.5462 29.4371 26.5161 28.7177L31.1191 30.518C31.315 30.6065 31.5369 30.6185 31.7412 30.5519C31.9455 30.4852 32.1176 30.3446 32.2236 30.1576L35.906 23.9466C35.9915 23.7546 36.0195 23.5419 35.9866 23.3343C35.9536 23.1267 35.861 22.9331 35.7202 22.7771L31.6718 19.8025ZM17.9502 24.3033C17.1117 24.321 16.278 24.171 15.4981 23.8623C14.7183 23.5536 14.0079 23.0923 13.4086 22.5055C12.8093 21.9187 12.3332 21.2182 12.0081 20.445C11.6831 19.6717 11.5157 18.8414 11.5157 18.0027C11.5157 17.1639 11.6831 16.3336 12.0081 15.5604C12.3332 14.7872 12.8093 14.0867 13.4086 13.4999C14.0079 12.9131 14.7183 12.4518 15.4981 12.1431C16.278 11.8343 17.1117 11.6844 17.9502 11.7021C18.7888 11.6844 19.6224 11.8343 20.4023 12.1431C21.1822 12.4518 21.8926 12.9131 22.4918 13.4999C23.0911 14.0867 23.5673 14.7872 23.8923 15.5604C24.2173 16.3336 24.3848 17.1639 24.3848 18.0027C24.3848 18.8414 24.2173 19.6717 23.8923 20.445C23.5673 21.2182 23.0911 21.9187 22.4918 22.5055C21.8926 23.0923 21.1822 23.5536 20.4023 23.8623C19.6224 24.171 18.7888 24.321 17.9502 24.3033Z" fill="white"/>
</svg>
